<?xml version="1.0" standalone="no"?>
<!DOCTYPE svg PUBLIC "-//W3C//DTD SVG 20010904//EN"
 "http://www.w3.org/TR/2001/REC-SVG-20010904/DTD/svg10.dtd">
<svg version="1.0" xmlns="http://www.w3.org/2000/svg"
 width="196.000000pt" height="196.000000pt" viewBox="0 0 196.000000 196.000000"
 preserveAspectRatio="xMidYMid meet">
<metadata>
Created by potrace 1.16, written by Peter Selinger 2001-2019
</metadata>
<g transform="translate(0.000000,196.000000) scale(0.100000,-0.100000)"
fill="#000000" stroke="none">
<path d="M0 1180 c0 -336 3 -609 7 -607 5 2 61 34 125 72 l118 68 0 466 0 466
-83 47 c-45 27 -101 59 -124 74 l-43 25 0 -611z"/>
<path d="M332 1438 l3 -153 409 -238 c398 -232 411 -239 435 -224 14 8 196
113 404 233 l377 219 0 157 0 157 -401 -230 c-221 -126 -403 -229 -405 -229
-2 0 -185 104 -405 230 -220 127 -405 230 -410 230 -6 0 -8 -60 -7 -152z"/>
<path d="M620 824 c-91 -53 -267 -154 -392 -226 l-228 -131 0 -159 0 -158 53
30 c28 16 267 153 529 302 263 150 478 275 478 278 -1 4 -248 149 -269 157 -3
1 -80 -40 -171 -93z"/>
<path d="M1220 749 c-162 -94 -346 -200 -407 -236 l-113 -65 0 -154 c0 -85 3
-154 7 -154 10 0 1083 614 1083 620 0 4 -252 152 -268 157 -4 1 -140 -75 -302
-168z"/>
</g>
</svg>
